<?xml version="1.0" standalone="no"?>
<!DOCTYPE svg PUBLIC "-//W3C//DTD SVG 20010904//EN"
 "http://www.w3.org/TR/2001/REC-SVG-20010904/DTD/svg10.dtd">
<svg version="1.0" xmlns="http://www.w3.org/2000/svg"
 width="1270.000000pt" height="1280.000000pt" viewBox="0 0 1270.000000 1280.000000"
 preserveAspectRatio="xMidYMid meet">
<g transform="translate(0.000000,1280.000000) scale(0.100000,-0.100000)"
fill="#000000" stroke="none">
<path d="M200 12788 c-25 -5 -61 -12 -80 -16 -31 -6 -37 -12 -52 -58 -9 -28
-23 -86 -32 -130 -43 -228 -44 -287 -12 -534 18 -141 21 -153 76 -445 73 -391
100 -581 100 -717 0 -64 -3 -72 -45 -133 -96 -140 -110 -286 -41 -429 45 -94
123 -192 286 -361 363 -378 401 -486 297 -850 -145 -507 -253 -1043 -296
-1471 -9 -90 -8 -109 9 -170 37 -130 93 -257 235 -538 198 -393 250 -532 276
-746 12 -101 6 -202 -17 -315 l-15 -70 70 -140 c192 -384 495 -728 891 -1012
131 -95 289 -187 472 -276 92 -45 169 -86 171 -92 1 -5 0 -334 -4 -730 l-6
-720 32 -70 c83 -180 82 -301 -1 -705 -51 -245 -65 -417 -45 -542 10 -62 9
-84 -4 -138 -23 -90 -31 -330 -15 -427 27 -169 106 -354 217 -510 61 -85 196
-243 266 -311 l44 -43 369 -14 c477 -18 1344 -32 2674 -45 586 -6 1146 -15
1245 -22 134 -8 232 -8 385 1 113 6 381 16 595 21 441 11 898 26 1245 40 129
5 323 12 430 16 157 5 213 11 287 30 127 32 222 49 478 84 280 39 376 55 497
86 53 13 123 24 156 24 86 0 219 25 313 60 306 111 560 358 903 876 114 172
151 257 144 328 -2 23 -26 129 -52 236 -44 178 -48 202 -44 291 3 86 7 104 38
164 l34 67 -42 77 c-23 42 -89 171 -147 286 -57 116 -127 246 -156 290 -105
159 -245 269 -388 306 -50 13 -52 14 -102 103 -140 246 -252 387 -669 841
-176 192 -280 312 -402 465 -103 129 -183 190 -249 190 -33 0 -74 -53 -94
-122 -22 -76 -25 -294 -6 -428 17 -118 57 -284 83 -339 18 -41 21 -62 19 -182
-3 -161 6 -231 64 -529 60 -304 75 -407 75 -525 0 -205 -46 -324 -174 -450
-48 -48 -111 -126 -156 -195 -262 -396 -610 -707 -1005 -900 -448 -218 -518
-239 -621 -190 -124 61 -152 250 -106 715 27 267 32 337 42 700 12 423 27 483
163 690 175 263 280 483 471 985 54 140 129 334 167 430 l69 175 126 150 c304
361 367 438 469 570 293 380 488 750 570 1085 9 36 27 92 40 125 73 189 78
380 20 775 -79 533 -47 717 162 929 86 87 94 99 129 190 132 340 359 678 707
1054 l87 94 0 117 c0 64 -7 210 -17 324 -19 246 -22 613 -4 732 6 47 23 132
35 190 13 58 29 141 35 185 6 44 27 163 46 265 48 250 58 454 27 556 -22 73
-59 121 -116 152 -46 25 -396 24 -516 -1 -216 -46 -410 -131 -790 -347 -129
-73 -293 -163 -365 -199 -78 -39 -160 -90 -207 -127 -191 -155 -395 -226 -853
-299 -345 -54 -496 -91 -580 -143 -17 -11 -48 -49 -70 -86 -53 -91 -147 -178
-222 -206 -174 -65 -341 -31 -783 160 -151 66 -311 124 -374 135 -20 4 -78 34
-128 67 -259 166 -538 252 -943 288 -101 10 -712 31 -935 33 -81 0 -137 -18
-310 -100 -165 -78 -224 -96 -316 -96 -54 1 -85 7 -135 29 -58 25 -73 27 -169
25 -206 -5 -333 44 -570 219 -157 116 -242 164 -331 185 -85 20 -148 19 -242
-4 -76 -18 -82 -18 -180 -1 -269 46 -454 129 -939 421 -165 100 -364 213 -442
252 -78 39 -166 87 -196 107 -78 53 -220 122 -325 160 -233 82 -560 128 -705
98z m440 -232 c206 -47 471 -166 640 -288 47 -33 130 -86 185 -116 55 -30 262
-145 460 -255 450 -251 787 -413 972 -467 41 -12 43 -12 78 18 59 52 114 76
175 76 75 0 117 -24 244 -141 149 -137 200 -177 265 -209 48 -23 65 -27 121
-23 36 2 259 2 495 1 288 -3 458 0 513 8 118 16 242 54 347 105 89 43 93 44
237 54 254 18 523 -9 812 -84 308 -79 611 -199 1131 -448 332 -159 507 -213
715 -224 295 -15 504 106 634 365 14 28 32 52 39 52 6 -1 37 -9 67 -20 74 -26
211 -27 312 -1 41 11 171 56 289 101 291 110 636 283 1293 648 371 207 564
309 620 327 94 31 220 43 283 26 124 -34 202 -143 211 -292 6 -96 -10 -194
-48 -304 -16 -46 -33 -124 -40 -185 -6 -58 -31 -233 -55 -390 -62 -402 -74
-496 -84 -655 -10 -167 1 -334 27 -428 l20 -68 -22 -14 c-235 -161 -321 -266
-462 -561 -42 -87 -107 -223 -145 -302 -109 -227 -195 -339 -375 -489 -57 -47
-114 -145 -135 -233 -17 -73 -15 -224 4 -335 9 -49 38 -184 66 -300 67 -286
75 -340 75 -490 0 -152 -14 -220 -73 -340 -21 -44 -56 -132 -76 -195 -124
-381 -318 -686 -835 -1310 -335 -404 -309 -364 -389 -601 -171 -506 -390 -982
-658 -1432 -52 -86 -66 -120 -73 -170 -15 -105 -39 -468 -50 -757 -23 -619
-29 -705 -62 -833 -27 -104 -30 -131 -26 -225 4 -118 20 -163 79 -221 65 -65
149 -91 300 -91 59 0 144 7 190 16 205 38 501 163 677 283 309 213 701 568
895 811 160 200 283 408 351 593 36 97 36 98 22 155 -50 196 -74 370 -116 842
-43 475 -76 680 -146 913 -13 42 36 10 139 -91 190 -186 714 -747 722 -772 13
-44 66 -143 103 -195 68 -95 138 -167 332 -340 107 -95 220 -199 251 -231 199
-210 281 -422 250 -645 -12 -83 -12 -85 20 -179 61 -181 51 -390 -28 -580 -70
-170 -174 -318 -381 -543 -289 -316 -435 -371 -1082 -407 -311 -18 -459 -52
-615 -141 -58 -33 -104 -52 -147 -59 -148 -26 -2604 -55 -3948 -47 -1150 7
-1740 23 -1740 47 0 19 76 24 280 20 512 -11 616 -4 714 49 38 20 54 36 68 69
29 64 17 125 -48 251 -41 78 -54 114 -54 147 0 66 -19 142 -55 220 -45 99 -86
160 -215 319 -113 141 -192 251 -225 314 -52 102 -77 234 -65 338 7 57 12 67
64 124 93 103 122 185 92 263 -17 44 -92 125 -205 220 -91 76 -245 251 -274
310 -59 120 -70 266 -41 529 13 115 13 152 4 197 -29 136 -124 251 -380 460
-141 116 -290 260 -290 281 0 15 -133 50 -210 56 -196 14 -389 -95 -451 -255
-26 -67 -31 -193 -10 -257 7 -22 58 -139 113 -260 122 -268 188 -434 228 -572
80 -280 78 -541 -6 -795 l-26 -78 47 -75 c96 -153 137 -289 139 -455 2 -256
-97 -502 -341 -843 -109 -152 -129 -212 -99 -292 39 -101 179 -173 446 -230
169 -35 185 -56 57 -68 -34 -4 -91 -16 -127 -27 -189 -61 -374 -26 -548 105
-87 66 -373 367 -392 413 -12 30 -15 94 -15 337 0 227 -4 311 -14 345 -18 58
-19 271 -2 370 7 41 35 167 61 280 66 278 72 318 73 445 0 134 -18 210 -76
320 l-42 80 4 420 c3 231 5 557 5 725 l1 305 -90 67 c-49 37 -216 143 -370
235 -489 294 -643 421 -794 653 -30 47 -74 105 -97 130 -60 63 -77 86 -117
160 -77 141 -108 282 -132 615 -9 116 -20 239 -26 275 -34 217 -102 372 -226
515 -48 55 -131 215 -162 312 -40 127 -54 252 -48 442 7 243 36 387 167 843
66 230 87 288 121 342 195 311 103 634 -312 1097 -57 64 -141 157 -186 208
-46 50 -83 96 -83 102 0 6 9 24 20 39 71 99 105 251 97 430 -6 142 -27 258
-98 545 -72 290 -100 435 -106 555 -4 76 -13 130 -34 196 -55 177 -49 288 19
365 73 81 221 101 422 55z m3063 -8373 c166 -53 409 -309 528 -556 77 -160 96
-281 63 -406 -21 -82 -9 -137 67 -325 34 -86 63 -173 66 -203 5 -48 3 -54 -24
-81 -37 -37 -71 -42 -317 -45 l-179 -2 -33 125 c-82 313 -270 815 -443 1184
-28 60 -51 114 -51 120 0 25 60 133 88 160 35 33 112 57 157 50 17 -3 52 -12
78 -21z m1054 -1840 c-4 -10 -16 -45 -27 -77 -73 -205 -32 -622 101 -1019 27
-81 47 -152 44 -157 -9 -15 -108 -31 -201 -31 -49 -1 -229 0 -399 2 -348 4
-352 5 -382 77 -19 45 -13 91 27 232 71 247 63 339 -41 473 -86 110 -119 177
-119 239 0 64 24 99 93 132 74 36 178 53 454 76 229 19 346 36 403 59 39 15
53 13 47 -6z m389 -1227 c15 -12 17 -18 8 -33 -15 -25 -77 -25 -82 0 -8 40 37
60 74 33z m-1141 -420 c33 -9 81 -26 107 -38 l48 -21 62 32 c126 63 206 60
441 -15 165 -53 244 -60 340 -29 57 19 58 19 152 -4 101 -24 149 -51 129 -71
-17 -17 -182 -29 -404 -30 -263 -1 -429 -14 -504 -41 -47 -17 -83 -22 -161
-22 -107 0 -147 9 -355 73 -69 21 -155 46 -191 55 -81 20 -129 48 -129 74 0
25 12 33 80 48 73 17 305 10 385 -11z"/>
<path d="M5387 9849 c-179 -12 -334 -43 -482 -95 -38 -14 -166 -47 -283 -74
-570 -131 -983 -289 -1267 -484 -60 -41 -146 -94 -189 -117 -759 -395 -1296
-1173 -1375 -1993 -19 -190 -8 -443 25 -600 38 -181 130 -383 252 -556 153
-215 527 -554 780 -706 165 -100 700 -276 1039 -343 228 -45 557 -81 750 -81
l72 0 35 -54 c73 -114 195 -210 332 -262 164 -61 303 -80 694 -94 151 -5 338
-12 415 -16 l140 -6 30 53 c102 181 314 296 630 343 55 8 195 24 310 36 248
24 403 50 540 90 55 16 127 34 160 40 166 32 370 102 535 185 321 161 556 389
690 670 88 185 167 448 207 690 26 158 26 587 -1 729 -54 292 -149 530 -326
814 -426 682 -1146 1212 -2120 1562 -258 93 -712 201 -1025 245 -99 13 -408
37 -445 34 -8 -1 -64 -5 -123 -10z m553 -224 c325 -40 711 -145 1136 -308 51
-20 147 -69 215 -110 68 -41 238 -136 377 -211 490 -264 631 -361 856 -590 82
-83 179 -187 216 -231 261 -311 425 -687 485 -1110 19 -132 19 -421 0 -555
-59 -416 -271 -811 -547 -1021 -418 -318 -950 -479 -1834 -554 -170 -14 -196
-14 -227 -1 -19 8 -60 19 -90 26 -129 26 -190 -20 -267 -203 -72 -172 -67
-167 -181 -174 -153 -9 -882 30 -905 49 -7 5 -15 25 -19 46 -21 111 -111 224
-218 271 -119 54 -251 70 -570 71 -114 0 -251 5 -304 11 -101 11 -240 47 -301
78 -20 10 -73 26 -117 36 -317 68 -700 258 -981 485 -161 130 -369 353 -471
505 -279 415 -281 985 -6 1625 116 270 207 395 475 655 275 267 606 505 979
703 166 88 379 158 964 317 291 79 417 116 571 166 52 17 131 33 185 39 125
12 423 4 579 -15z"/>
<path d="M6978 7765 c-397 -65 -692 -322 -778 -677 -95 -394 50 -841 354
-1084 153 -122 335 -191 476 -179 212 18 438 98 614 218 179 122 341 337 406
542 28 89 39 303 20 409 -68 384 -340 685 -684 757 -124 26 -298 32 -408 14z"/>
<path d="M3760 7705 c-396 -62 -643 -283 -720 -643 -27 -130 -33 -216 -20
-328 49 -450 328 -812 676 -878 164 -31 298 -40 393 -28 393 53 729 351 825
734 55 222 42 478 -35 678 -79 206 -246 387 -392 426 -186 50 -538 68 -727 39z"/>
<path d="M5340 5791 c-102 -36 -146 -113 -119 -209 19 -71 119 -167 229 -220
128 -61 180 -75 258 -70 166 12 333 173 336 323 1 107 -61 149 -224 151 -63 1
-129 8 -165 18 -33 9 -105 19 -160 22 -83 4 -110 1 -155 -15z"/>
<path d="M7608 4305 c-141 -35 -266 -113 -372 -231 -175 -193 -309 -221 -689
-142 -176 36 -219 41 -332 42 -121 0 -137 -2 -227 -33 l-97 -33 -59 21 c-263
91 -565 25 -757 -164 -214 -212 -208 -486 16 -737 32 -35 84 -97 118 -140 269
-337 707 -570 976 -519 l60 12 31 -35 c65 -75 114 -212 114 -322 0 -133 -57
-281 -217 -560 -44 -76 -92 -161 -106 -189 -42 -84 -86 -222 -93 -292 -7 -61
-12 -72 -56 -127 -72 -88 -100 -149 -106 -227 -4 -53 0 -73 17 -107 42 -82
138 -151 275 -197 163 -54 365 -67 600 -40 150 18 165 18 470 0 402 -23 534
-13 667 55 57 30 109 72 109 89 0 7 -29 68 -64 135 -36 66 -75 153 -87 191
-29 90 -31 203 -5 301 l19 72 -60 56 c-76 70 -117 133 -139 214 -32 117 -3
216 141 482 110 203 139 288 133 395 -5 89 -32 161 -86 228 -65 81 -101 234
-82 352 21 134 65 233 203 465 149 250 203 394 214 566 7 97 -7 166 -50 247
-37 71 -81 111 -165 150 -55 26 -79 31 -161 33 -61 2 -117 -2 -153 -11z m168
-246 c60 -41 100 -99 115 -165 25 -111 -17 -235 -182 -545 -55 -102 -115 -223
-135 -270 -75 -177 -93 -322 -53 -429 35 -92 35 -123 4 -149 -24 -18 -41 -21
-120 -21 -110 0 -218 25 -325 76 -128 60 -180 114 -180 183 0 29 9 44 56 89
l56 54 -16 93 c-86 503 157 921 629 1086 44 15 86 28 93 28 7 1 34 -13 58 -30z
m-1375 -299 c108 -41 187 -120 233 -234 29 -74 28 -228 -2 -310 -46 -125 -143
-246 -264 -329 -31 -22 -73 -63 -93 -93 -82 -119 -183 -179 -300 -177 -200 2
-412 180 -735 618 -83 112 -101 159 -103 260 -1 60 3 77 26 118 77 131 304
162 669 91 76 -15 77 -15 125 9 59 30 134 56 193 67 68 13 190 4 251 -20z
m417 -774 c11 -55 -124 -228 -213 -274 -22 -11 -55 -41 -73 -66 -36 -49 -72
-62 -72 -26 0 52 93 185 149 215 15 7 48 41 75 74 49 61 102 104 121 97 6 -1
12 -10 13 -20z m-178 -670 c73 -23 110 -30 445 -81 324 -49 435 -111 435 -247
0 -60 -57 -175 -118 -241 -66 -70 -84 -107 -83 -176 0 -97 34 -166 165 -340
104 -137 117 -169 77 -191 -52 -27 -801 -21 -1170 9 -120 10 -128 22 -96 146
21 82 59 159 163 338 154 261 191 351 199 483 7 100 -11 168 -67 251 -57 85
-59 83 50 49z m755 -1488 c13 -12 -21 -38 -51 -38 -51 0 -72 28 -36 49 18 11
71 5 87 -11z m-513 -153 c115 -47 156 -97 106 -129 -89 -57 -712 -60 -883 -4
-77 25 -98 52 -48 62 15 3 134 10 263 16 129 5 262 14 294 20 70 11 153 38
161 51 10 15 42 10 107 -16z m754 -87 c21 -21 6 -49 -40 -78 -77 -47 -423 -66
-464 -25 -13 13 17 41 64 58 47 18 201 52 274 61 68 8 150 0 166 -16z"/>
</g>
</svg>
