<?xml version="1.0" standalone="no"?>
<!DOCTYPE svg PUBLIC "-//W3C//DTD SVG 20010904//EN"
 "http://www.w3.org/TR/2001/REC-SVG-20010904/DTD/svg10.dtd">
<svg version="1.0" xmlns="http://www.w3.org/2000/svg"
 width="1178.000000pt" height="1280.000000pt" viewBox="0 0 1178.000000 1280.000000"
 preserveAspectRatio="xMidYMid meet">
<g transform="translate(0.000000,1280.000000) scale(0.100000,-0.100000)"
fill="#000000" stroke="none">
<path d="M5025 12775 c-219 -42 -399 -130 -560 -275 -22 -20 -57 -47 -77 -59
-115 -69 -176 -215 -133 -319 22 -52 51 -79 118 -113 77 -39 253 -216 333
-334 143 -211 214 -412 216 -617 2 -113 -13 -148 -75 -180 -37 -19 -64 -22
-227 -28 -214 -8 -237 -15 -299 -87 -148 -170 -170 -407 -69 -713 17 -52 70
-169 117 -260 l85 -165 0 -85 c1 -78 -2 -90 -33 -148 -39 -71 -124 -155 -203
-200 -29 -16 -100 -47 -158 -67 -169 -60 -253 -118 -328 -227 -121 -176 -134
-478 -36 -838 23 -82 25 -107 20 -182 -13 -170 -67 -325 -168 -480 -46 -70
-105 -137 -242 -273 -198 -196 -253 -267 -331 -420 -90 -177 -147 -380 -180
-645 -22 -174 -32 -578 -16 -650 19 -86 25 -312 12 -430 -38 -331 -143 -625
-429 -1196 -65 -132 -125 -257 -132 -279 -56 -176 -177 -318 -500 -591 -171
-144 -268 -242 -328 -331 -59 -87 -61 -93 -109 -277 -131 -509 -315 -869 -568
-1116 -37 -36 -97 -106 -135 -155 -38 -50 -132 -157 -209 -238 -223 -232 -299
-339 -344 -482 -35 -110 -34 -119 18 -168 25 -25 73 -59 105 -76 70 -38 236
-76 295 -68 125 17 257 45 480 102 138 35 288 69 335 75 47 7 150 27 230 46
294 68 501 103 800 133 320 33 597 43 1128 42 l503 0 112 -37 c162 -52 194
-53 317 -14 261 84 448 220 736 535 71 77 114 115 193 165 342 218 383 249
441 339 16 26 37 78 46 115 l17 66 143 105 c354 261 554 455 689 670 66 106
105 199 145 345 40 148 77 241 133 337 124 211 301 376 522 488 119 60 181 80
295 94 164 21 294 110 361 247 29 58 34 80 37 159 9 192 -70 332 -258 458
-106 71 -117 119 -32 144 22 6 125 17 229 23 103 6 231 20 283 30 52 10 201
35 330 55 454 70 631 124 816 247 72 48 94 86 94 162 0 69 -17 109 -101 231
-91 135 -119 196 -119 266 0 80 11 90 111 100 46 4 129 8 184 8 146 2 364 27
437 52 108 36 262 114 339 171 213 157 345 366 565 891 149 354 246 544 426
834 176 281 270 461 318 605 35 109 34 126 -13 176 -55 57 -131 65 -318 32
-546 -98 -1028 -295 -1521 -621 -190 -125 -353 -203 -724 -345 -206 -78 -259
-102 -431 -200 -182 -103 -305 -135 -390 -99 l-36 15 7 84 c26 339 195 714
486 1081 107 134 364 568 491 830 330 679 280 1288 -142 1708 -277 274 -651
345 -1089 205 -301 -96 -687 -333 -1000 -614 -47 -42 -179 -153 -293 -246
-115 -94 -264 -221 -332 -284 -115 -106 -126 -113 -174 -120 -35 -4 -56 -3
-66 6 -32 27 -11 189 62 470 72 273 101 406 117 520 9 58 22 126 31 150 59
167 80 423 51 612 -67 424 -310 777 -651 943 -270 132 -345 160 -517 190 -105
19 -118 18 -263 -10z m325 -189 c472 -110 808 -410 917 -821 24 -91 26 -117
27 -285 0 -197 -13 -294 -70 -509 -13 -52 -29 -136 -34 -185 -11 -102 -20
-142 -91 -377 -65 -219 -79 -286 -79 -395 0 -125 14 -191 48 -227 54 -59 155
-86 246 -67 50 10 62 18 123 84 38 40 124 118 193 173 69 56 217 181 330 279
341 296 493 411 740 560 172 103 270 150 404 193 202 65 415 76 589 32 313
-81 577 -405 637 -784 18 -110 7 -375 -19 -492 -31 -133 -88 -293 -146 -408
-254 -499 -262 -513 -500 -847 -252 -352 -326 -482 -417 -729 -93 -252 -120
-446 -82 -582 14 -48 23 -62 56 -84 61 -40 113 -55 195 -55 115 0 190 24 393
128 102 52 205 104 230 117 25 12 151 61 280 110 285 106 461 188 600 281 432
289 852 484 1245 579 61 14 138 35 171 45 59 18 237 31 249 18 12 -12 -94
-205 -402 -731 -194 -331 -195 -334 -334 -677 -115 -283 -196 -453 -268 -562
-110 -165 -263 -298 -443 -383 -127 -61 -157 -65 -463 -74 -154 -5 -281 -8
-283 -6 -2 1 52 67 120 146 159 185 195 231 248 306 42 61 43 62 26 87 -32 49
-58 32 -166 -109 -29 -38 -115 -142 -190 -230 -273 -319 -294 -374 -225 -568
44 -124 70 -174 137 -268 30 -42 58 -81 62 -87 9 -14 -19 -80 -45 -108 -34
-37 -128 -71 -239 -89 -249 -39 -287 -47 -356 -75 -115 -46 -200 -59 -481 -75
-144 -8 -297 -22 -340 -30 -93 -18 -93 -18 -93 -4 0 6 84 128 186 271 102 143
190 271 194 284 8 19 5 28 -12 44 -44 41 -54 32 -216 -200 -71 -102 -165 -237
-210 -300 -113 -160 -172 -267 -172 -311 0 -49 46 -121 178 -278 162 -193 198
-278 155 -368 -25 -55 -71 -83 -191 -119 -307 -93 -581 -240 -759 -408 -77
-72 -103 -89 -103 -66 0 27 89 281 150 430 77 187 140 369 140 405 0 28 -29
48 -63 43 -25 -4 -36 -24 -72 -138 -15 -47 -60 -166 -100 -265 -77 -190 -253
-727 -281 -855 -9 -41 -23 -106 -31 -145 -72 -331 -350 -711 -641 -874 -97
-54 -194 -151 -320 -320 -193 -261 -266 -333 -407 -403 -85 -43 -162 -108
-391 -330 -110 -107 -230 -216 -267 -242 -86 -61 -191 -116 -225 -117 -15 0
-61 -13 -102 -28 l-75 -28 -78 29 c-136 49 -223 59 -512 58 -1177 -7 -1082 -2
-1505 -66 -240 -36 -486 -83 -1015 -194 -581 -121 -593 -123 -740 -124 -147
-1 -185 13 -185 69 0 53 92 169 493 620 366 411 545 667 656 936 31 76 40 111
45 184 21 330 214 618 624 929 78 59 87 69 173 183 134 177 281 432 394 683
141 313 348 859 377 995 26 125 29 320 9 625 -26 417 9 826 89 1029 83 212
230 419 491 697 63 66 134 143 159 170 26 29 91 79 155 118 182 113 266 171
355 246 47 40 140 110 208 157 84 59 122 92 122 105 0 30 -19 58 -38 58 -37 0
-202 -114 -407 -280 -107 -87 -245 -175 -256 -162 -4 4 4 50 17 102 52 203 40
449 -33 675 -44 136 -51 211 -28 291 42 146 132 232 425 404 69 41 189 116
266 167 168 110 198 143 471 513 92 126 89 118 62 146 -45 48 -63 33 -221
-186 -54 -74 -110 -148 -124 -164 -33 -35 -39 -27 -47 64 -8 84 -36 165 -136
384 -121 266 -145 370 -116 521 18 97 31 129 67 162 46 43 95 55 268 64 177 9
203 14 277 52 26 14 80 38 118 53 76 31 378 230 468 309 29 25 4 85 -35 85
-22 0 -42 -13 -228 -146 -137 -98 -206 -141 -216 -132 -3 4 -1 47 6 96 29 227
-66 508 -269 792 -26 36 -59 86 -73 111 -35 60 -92 111 -219 196 -114 77 -132
94 -124 114 6 13 206 165 346 263 36 25 104 66 150 91 l84 46 130 -5 c86 -3
165 -13 235 -30z"/>
<path d="M8295 10943 c-105 -9 -180 -29 -307 -83 -155 -66 -202 -91 -277 -150
-55 -43 -62 -67 -31 -95 23 -21 34 -18 115 40 80 58 342 171 427 185 34 5 89
10 121 10 50 0 59 3 68 23 7 15 7 31 0 50 -11 29 -13 29 -116 20z"/>
<path d="M8253 10759 c-36 -10 -44 -40 -20 -72 10 -15 25 -16 109 -10 l98 6 6
33 c3 18 3 37 -1 43 -8 13 -147 13 -192 0z"/>
<path d="M7790 10436 c-42 -8 -94 -23 -115 -34 -54 -27 -213 -184 -259 -254
-44 -67 -137 -156 -219 -209 -32 -21 -108 -54 -170 -75 -138 -45 -285 -114
-331 -155 -19 -16 -40 -46 -47 -66 -11 -33 -10 -38 11 -55 14 -12 39 -18 70
-18 32 0 52 -5 61 -17 20 -23 72 -43 114 -43 47 0 86 17 170 75 70 47 70 47
133 41 l64 -7 39 40 40 39 112 7 c145 9 193 30 267 113 62 71 126 108 250 146
189 58 223 110 189 291 -13 72 -37 120 -79 160 -30 29 -35 30 -128 32 -53 1
-131 -4 -172 -11z"/>
<path d="M8617 9966 c-31 -19 -68 -44 -83 -55 -14 -11 -49 -25 -79 -31 -30 -6
-66 -21 -81 -32 -32 -26 -63 -91 -64 -133 0 -18 -19 -62 -46 -108 -41 -70 -74
-156 -74 -198 0 -16 79 -138 147 -227 37 -49 46 -119 17 -142 -25 -21 -91
-140 -119 -213 -20 -54 -25 -86 -25 -156 0 -81 2 -91 29 -127 62 -85 97 -101
157 -73 24 12 34 29 60 104 39 116 82 198 133 260 70 84 85 125 75 203 -11 88
-8 164 10 226 8 28 17 100 21 159 9 153 25 200 90 267 64 65 85 110 85 182 0
63 -18 94 -66 114 -60 25 -123 18 -187 -20z"/>
<path d="M6417 9545 c-83 -43 -128 -79 -251 -204 -118 -119 -120 -120 -101
-141 10 -11 24 -20 31 -20 8 0 63 46 124 102 116 107 180 157 243 189 41 22
47 45 20 78 l-18 21 -48 -25z"/>
<path d="M7450 9478 c-36 -13 -93 -44 -127 -71 -106 -81 -139 -92 -280 -92
-67 0 -123 -2 -126 -5 -2 -3 -15 -25 -27 -50 -48 -96 -96 -122 -260 -138 -90
-10 -128 -24 -199 -78 -24 -19 -48 -31 -52 -28 -15 9 -131 -34 -183 -66 -113
-72 -85 -179 51 -196 33 -4 84 -2 124 6 56 10 81 21 134 60 64 47 145 80 198
80 13 0 42 -7 63 -16 64 -27 119 -15 204 44 41 29 97 70 123 92 42 35 55 40
98 40 l49 0 56 -85 c30 -47 67 -92 82 -99 38 -21 82 -64 84 -84 1 -9 2 -71 2
-137 1 -115 3 -124 33 -185 31 -65 31 -66 37 -261 3 -107 8 -202 11 -211 3 -8
25 -25 48 -38 64 -35 76 -49 83 -97 3 -24 13 -50 21 -58 43 -44 156 -16 189
47 24 44 30 203 15 373 -12 128 -12 132 13 214 14 47 26 99 26 116 0 17 -20
73 -45 124 -37 77 -45 102 -45 150 0 95 22 150 99 240 71 85 81 108 81 193 0
81 -36 130 -124 169 -92 40 -179 60 -286 65 -91 4 -113 2 -170 -18z"/>
<path d="M6471 9430 c-51 -33 -94 -67 -98 -76 -7 -20 8 -48 29 -52 12 -2 183
100 207 124 8 7 -22 64 -34 64 -7 0 -54 -27 -104 -60z"/>
<path d="M4020 6337 c-14 -7 -26 -21 -28 -32 -2 -11 -140 -202 -306 -425 -167
-223 -313 -421 -326 -440 -13 -19 -62 -82 -109 -140 -106 -131 -155 -207 -177
-272 -14 -42 -14 -52 -3 -59 38 -24 80 3 115 74 29 57 107 166 402 561 106
142 238 324 294 405 56 80 122 169 146 196 25 28 52 65 61 83 15 32 15 35 -4
48 -23 17 -33 17 -65 1z"/>
<path d="M4196 3448 c-22 -34 -106 -213 -176 -373 -142 -325 -330 -619 -584
-911 -48 -55 -85 -105 -84 -113 2 -8 15 -23 31 -34 l27 -21 41 40 c63 60 227
258 306 369 150 211 259 409 398 726 42 96 90 198 106 228 35 65 36 75 7 95
-31 22 -55 20 -72 -6z"/>
<path d="M4978 3353 c-89 -101 -380 -684 -513 -1028 -124 -319 -507 -1047
-674 -1280 -30 -43 -35 -58 -36 -105 0 -52 1 -55 27 -58 24 -3 35 11 146 190
224 360 496 885 622 1197 136 338 310 705 434 913 42 70 76 134 76 142 0 16
-37 46 -56 46 -6 0 -18 -8 -26 -17z"/>
<path d="M5897 2883 c-3 -5 -42 -100 -87 -213 -46 -113 -125 -297 -177 -410
-102 -223 -303 -708 -303 -732 0 -18 16 -33 47 -42 34 -11 39 0 213 429 26 66
81 190 120 274 74 158 270 635 270 657 0 6 -6 16 -12 21 -18 14 -66 25 -71 16z"/>
<path d="M2154 1718 c-189 -221 -628 -690 -738 -791 -62 -56 -176 -156 -253
-222 -77 -66 -148 -132 -157 -147 -33 -53 -11 -93 39 -70 37 17 369 306 490
427 216 216 775 849 775 879 0 17 -21 36 -41 36 -10 0 -60 -49 -115 -112z"/>
<path d="M2958 1508 c-239 -274 -314 -357 -576 -638 -86 -92 -103 -115 -100
-138 5 -47 37 -39 119 31 88 75 501 527 775 847 128 151 119 136 100 165 -35
53 -46 43 -318 -267z"/>
</g>
</svg>
