<?xml version="1.0" standalone="no"?>
<!DOCTYPE svg PUBLIC "-//W3C//DTD SVG 20010904//EN"
 "http://www.w3.org/TR/2001/REC-SVG-20010904/DTD/svg10.dtd">
<svg version="1.0" xmlns="http://www.w3.org/2000/svg"
 width="1055.000000pt" height="1280.000000pt" viewBox="0 0 1055.000000 1280.000000"
 preserveAspectRatio="xMidYMid meet">
<g transform="translate(0.000000,1280.000000) scale(0.100000,-0.100000)"
fill="#000000" stroke="none">
<path d="M4798 12789 c-2 -6 -55 -17 -118 -24 -721 -84 -1389 -333 -2015 -750
-462 -308 -773 -610 -1044 -1010 -368 -544 -650 -1278 -891 -2319 -328 -1420
-615 -3562 -694 -5186 -9 -173 -20 -396 -26 -495 -13 -227 -13 -534 0 -701 5
-71 14 -208 20 -304 59 -930 289 -1454 695 -1583 100 -31 266 -30 385 3 127
35 299 128 560 301 370 246 471 294 615 287 67 -2 92 -9 158 -40 83 -40 213
-126 426 -282 232 -171 411 -269 576 -318 68 -20 102 -23 230 -23 132 1 162 4
249 28 130 36 275 98 471 202 444 236 575 292 710 302 42 3 95 1 126 -7 86
-19 243 -101 384 -199 428 -297 578 -384 750 -433 106 -30 352 -33 455 -4 183
50 296 101 620 276 388 210 527 263 685 263 180 1 327 -74 736 -375 338 -248
477 -326 668 -372 130 -32 169 -32 284 0 122 34 197 75 280 154 290 272 422
788 454 1765 3 99 1 270 -6 380 -6 110 -16 286 -22 390 -92 1692 -526 4434
-990 6264 -342 1347 -687 2109 -1174 2596 -155 156 -252 235 -440 360 -671
445 -1583 764 -2385 835 -69 6 -166 15 -217 20 -129 14 -510 13 -515 -1z m692
-449 c468 -47 949 -169 1405 -356 303 -125 704 -344 905 -496 524 -395 850
-987 1186 -2158 285 -992 618 -2655 838 -4180 234 -1624 326 -2879 266 -3638
-56 -709 -219 -1098 -448 -1069 -83 11 -251 105 -457 257 -411 302 -619 423
-820 477 -83 22 -123 26 -235 27 -261 2 -434 -61 -940 -337 -369 -201 -532
-253 -688 -216 -91 21 -265 115 -437 236 -372 261 -472 319 -650 379 -99 33
-123 38 -240 42 -154 5 -261 -14 -420 -73 -93 -34 -163 -69 -618 -304 -276
-144 -418 -180 -561 -147 -127 30 -234 93 -541 316 -276 201 -408 276 -570
321 -111 31 -276 32 -392 1 -179 -48 -311 -118 -668 -355 -404 -269 -519 -299
-645 -169 -65 67 -106 141 -153 277 -92 265 -137 590 -159 1132 -48 1212 189
3637 537 5479 273 1450 574 2350 997 2981 304 456 786 857 1389 1158 385 191
750 312 1146 379 128 21 197 29 443 50 74 6 417 -3 530 -14z"/>
<path d="M6405 10119 c-38 -5 -112 -21 -163 -34 -257 -68 -454 -186 -644 -384
-182 -189 -296 -407 -355 -673 -25 -118 -25 -419 1 -537 99 -455 390 -813 807
-992 303 -131 668 -144 984 -36 326 112 609 358 768 666 111 214 150 377 150
626 1 190 -17 299 -74 462 -156 443 -526 772 -989 879 -120 28 -364 40 -485
23z"/>
<path d="M3405 10064 c-458 -82 -853 -399 -1030 -829 -128 -309 -136 -663 -23
-984 134 -381 449 -695 831 -830 511 -180 1076 -45 1448 346 183 193 299 415
356 683 14 64 18 129 18 265 0 192 -12 271 -62 424 -155 477 -579 842 -1072
925 -117 20 -355 20 -466 0z"/>
</g>
</svg>
