<?xml version="1.0" standalone="no"?>
<!DOCTYPE svg PUBLIC "-//W3C//DTD SVG 20010904//EN"
 "http://www.w3.org/TR/2001/REC-SVG-20010904/DTD/svg10.dtd">
<svg version="1.0" xmlns="http://www.w3.org/2000/svg"
 width="1280.000000pt" height="1107.000000pt" viewBox="0 0 1280.000000 1107.000000"
 preserveAspectRatio="xMidYMid meet">
<g transform="translate(0.000000,1107.000000) scale(0.100000,-0.100000)"
fill="#000000" stroke="none">
<path d="M9170 11041 c-86 -15 -188 -36 -229 -46 -110 -27 -434 -171 -540
-240 -20 -13 -153 -76 -296 -140 -382 -171 -747 -353 -855 -425 -124 -83 -533
-367 -733 -508 -297 -211 -946 -574 -1253 -702 -116 -48 -231 -80 -289 -80
-30 0 -71 15 -146 51 l-104 52 -186 5 c-361 9 -710 -43 -1024 -152 -196 -68
-333 -141 -560 -299 -239 -167 -328 -241 -460 -387 -135 -149 -131 -146 -240
-153 -133 -9 523 -6 751 3 l260 11 85 -83 c98 -97 196 -164 369 -252 338 -172
704 -262 961 -235 300 30 450 180 466 464 3 55 11 106 17 114 9 12 78 13 443
7 490 -7 741 -19 911 -40 316 -41 849 -50 1417 -24 165 7 505 13 755 13 395 0
476 -3 615 -20 133 -17 212 -20 465 -18 168 1 397 9 509 17 552 43 822 0 986
-155 70 -66 107 -148 113 -250 5 -93 -13 -135 -88 -202 -51 -46 -199 -125
-278 -148 -31 -9 -54 -27 -90 -68 -26 -31 -104 -116 -174 -189 -156 -163 -334
-399 -403 -533 -24 -46 -91 -115 -125 -129 -35 -15 -39 -30 -7 -30 81 0 111
-23 384 -292 176 -173 230 -210 438 -298 136 -58 184 -70 297 -70 116 0 118
-2 118 -109 l0 -71 -62 -28 -63 -29 -28 -76 c-31 -84 -30 -83 -114 -78 -41 3
-59 -11 -30 -22 34 -13 171 -134 216 -191 85 -107 101 -141 101 -221 0 -59 -5
-78 -29 -120 -79 -139 -285 -245 -549 -286 -45 -7 -79 -16 -76 -21 3 -4 83 -8
179 -8 l174 0 21 -27 c12 -15 45 -75 75 -134 62 -125 90 -234 81 -312 -14
-108 -79 -202 -160 -232 -37 -13 -329 -47 -775 -90 -151 -14 -204 -25 -125
-25 22 0 91 -7 154 -15 63 -8 210 -23 325 -35 234 -23 274 -31 325 -66 100
-68 108 -172 35 -489 -34 -145 -76 -426 -90 -590 -10 -128 19 -115 -259 -115
-455 0 -1014 26 -1326 61 -140 16 -260 21 -601 24 l-427 4 -93 51 c-52 29
-121 72 -155 95 -120 86 -659 290 -1039 394 -191 53 -355 85 -575 115 -376 51
-516 61 -870 61 -306 0 -346 -2 -465 -24 -170 -30 -437 -90 -600 -135 -119
-33 -157 -39 -435 -61 -168 -13 -390 -29 -495 -35 -160 -10 -227 -19 -425 -61
-129 -27 -271 -58 -315 -68 -44 -11 -83 -17 -87 -15 -13 8 -9 77 8 133 12 40
21 54 42 62 41 16 319 95 382 109 119 27 114 27 -360 50 -118 6 -225 13 -237
15 -12 3 -49 30 -82 61 -95 88 -282 148 -557 179 -33 3 -66 10 -72 14 -17 10
-67 214 -82 330 -13 100 -6 213 13 230 27 22 334 65 541 77 70 4 122 10 115
14 -8 4 -63 15 -124 24 -258 39 -357 78 -420 164 -75 102 -101 251 -90 505 4
90 10 170 15 176 5 9 71 15 216 22 190 8 664 46 671 53 2 2 -92 6 -209 10
-477 16 -774 61 -831 124 -25 27 -48 151 -57 312 -5 80 -12 170 -16 201 -10
83 0 87 197 87 261 -1 220 24 -83 48 -42 4 -82 10 -89 14 -6 4 -22 45 -35 91
-16 58 -23 74 -23 52 -2 -58 -7 -63 -77 -63 -82 0 -152 15 -241 52 -63 26 -73
34 -83 64 -33 98 73 375 187 491 123 127 313 149 493 59 36 -18 65 -39 65 -46
0 -7 -37 -35 -83 -63 -46 -27 -82 -51 -79 -53 2 -3 30 2 63 11 32 8 65 15 73
15 9 0 39 24 69 53 l53 52 332 2 c183 1 348 6 367 12 25 6 -32 9 -195 10 -469
2 -662 42 -800 164 -47 40 -104 142 -89 157 10 9 295 55 414 66 75 7 223 55
424 138 93 39 127 43 576 72 113 8 114 8 55 15 -33 5 -206 17 -385 29 -580 37
-782 70 -925 154 -124 73 -144 197 -50 315 l35 44 -29 18 c-16 10 -35 27 -40
38 -25 46 -3 342 30 403 9 16 27 18 152 20 l142 1 -180 9 c-228 11 -414 5
-482 -16 -150 -47 -185 -164 -164 -546 7 -113 14 -214 16 -225 3 -13 43 -41
121 -85 64 -35 127 -75 141 -87 24 -23 24 -23 6 -54 -19 -32 -96 -87 -226
-160 -98 -55 -264 -197 -437 -375 -334 -343 -567 -703 -744 -1152 -95 -241
-106 -287 -116 -499 -5 -103 -18 -245 -29 -314 -34 -217 -64 -609 -57 -744 29
-585 118 -988 298 -1350 206 -413 528 -739 912 -920 397 -189 1052 -304 1731
-305 88 0 166 -4 174 -9 12 -8 12 -19 3 -67 -7 -31 -12 -74 -12 -95 0 -58 43
-180 115 -328 36 -73 65 -139 65 -146 0 -17 -231 -28 -500 -23 l-195 3 -22
153 c-12 83 -29 180 -38 213 -16 66 -52 155 -59 148 -3 -2 2 -31 10 -64 24
-105 14 -233 -32 -385 -24 -80 -40 -107 -69 -114 -14 -4 -23 -11 -20 -16 10
-16 -21 -64 -69 -108 -32 -30 -63 -47 -106 -59 -85 -23 -80 -45 19 -96 71 -36
75 -37 94 -20 23 21 141 178 181 242 l28 44 95 -7 c56 -4 201 0 356 10 320 20
466 15 528 -17 60 -30 149 -92 178 -122 21 -23 29 -25 75 -20 28 3 54 8 57 12
14 13 -12 52 -57 83 -62 45 -38 47 85 9 140 -44 152 -42 221 30 34 36 41 39
89 39 45 0 57 -4 83 -30 l30 -30 222 0 222 0 37 -45 c32 -38 115 -105 131
-105 3 0 8 17 11 38 15 96 67 141 144 127 41 -7 121 -51 121 -65 0 -25 32 -6
50 29 29 58 53 71 132 71 75 0 67 6 142 -95 24 -33 65 -75 90 -93 l46 -33 18
32 c9 17 47 79 85 136 156 240 229 444 243 677 l5 91 -45 -50 c-44 -47 -50
-63 -125 -295 -44 -135 -90 -279 -102 -320 -25 -84 -60 -160 -83 -179 -31 -26
-32 -19 -56 541 -6 144 -7 301 -1 432 9 194 20 254 42 241 5 -4 57 2 117 11
196 32 588 15 639 -28 10 -8 13 -98 13 -402 1 -512 18 -866 44 -866 15 0 171
94 249 150 85 62 261 239 330 333 94 127 209 327 189 327 -29 0 -302 -252
-470 -434 -56 -61 -108 -111 -115 -111 -33 0 -50 651 -22 858 17 133 22 147
43 147 10 0 101 -18 202 -40 102 -22 268 -56 370 -74 184 -34 366 -90 650
-200 87 -34 130 -42 510 -96 1078 -153 1487 -196 1647 -171 1201 189 1926 656
2186 1407 38 110 118 450 142 609 26 174 26 171 16 155 -5 -8 -34 -83 -64
-166 -119 -327 -247 -598 -371 -787 -26 -38 -13 -34 39 14 25 23 48 39 52 35
4 -4 -6 -32 -21 -64 -137 -281 -439 -555 -811 -738 -438 -214 -928 -308 -1605
-308 -391 0 -655 25 -1005 95 -151 31 -249 66 -360 132 -121 72 -1190 347
-1675 432 -399 69 -627 71 -970 9 -202 -37 -359 -81 -862 -240 -252 -80 -488
-151 -525 -159 -118 -24 -259 -35 -578 -46 -427 -14 -870 -1 -1225 37 -730 77
-1209 301 -1547 722 -104 130 -147 176 -203 217 -39 28 -54 50 -89 125 -54
115 -103 268 -135 417 -31 148 -112 661 -127 808 -15 145 -5 597 15 730 91
595 323 1150 741 1780 142 213 322 456 343 463 20 6 63 -104 69 -180 5 -63 4
-71 -23 -109 -15 -23 -50 -60 -76 -83 -45 -40 -50 -48 -72 -137 -14 -53 -28
-127 -31 -166 -8 -79 -3 -93 74 -207 l46 -68 1 -302 c0 -319 4 -354 49 -432
27 -46 98 -115 144 -138 17 -9 31 -21 31 -26 0 -5 -34 -32 -76 -61 -88 -59
-97 -74 -120 -216 -12 -75 -15 -142 -11 -286 l4 -187 53 -56 53 -56 -6 -91
c-4 -51 -16 -137 -28 -192 -48 -226 -12 -353 109 -384 212 -53 472 -112 537
-121 136 -19 144 -21 149 -28 3 -5 -13 -64 -35 -131 -21 -68 -39 -131 -39
-140 0 -37 88 -93 272 -175 42 -19 102 -51 132 -71 68 -45 103 -55 188 -55 82
0 163 17 338 70 l135 42 235 7 c129 5 307 5 395 1 145 -6 178 -4 360 21 246
36 573 73 845 96 297 26 1071 26 1320 0 212 -22 470 -58 611 -87 274 -56 652
-213 1279 -532 714 -364 859 -435 1040 -510 308 -127 546 -201 800 -249 163
-30 454 -37 606 -15 349 51 664 211 870 443 38 42 62 73 54 68 -8 -5 -40 -24
-69 -43 -272 -173 -643 -253 -1106 -239 -396 13 -699 71 -996 192 -208 85
-593 288 -586 310 6 19 144 22 877 24 399 0 799 6 890 11 199 13 432 38 443
50 10 9 142 418 198 615 l40 140 -11 160 c-6 88 -15 189 -20 225 -5 36 -10 69
-10 74 0 5 27 35 59 66 53 50 62 66 86 141 24 71 28 101 28 199 0 135 -25 246
-93 406 -73 173 -74 150 10 246 136 156 198 267 207 367 6 68 -2 96 -69 243
l-49 107 43 59 c24 33 50 72 59 88 17 32 30 38 310 134 182 62 238 94 352 199
279 255 436 567 549 1091 27 124 32 166 32 293 l1 148 -240 80 c-423 141 -421
140 -647 146 -119 4 -253 1 -339 -6 -93 -8 -145 -9 -151 -3 -6 6 -14 66 -19
134 -20 283 -106 455 -265 530 -58 27 -72 29 -355 47 -497 33 -863 44 -1161
37 -198 -5 -278 -4 -278 4 0 11 109 185 282 450 383 588 630 1077 716 1419 35
141 36 350 3 476 -52 198 -168 343 -341 429 -148 73 -351 116 -570 122 -80 2
-142 -4 -260 -25z m390 -126 c357 -54 593 -216 655 -451 19 -71 21 -205 5
-293 -28 -153 -127 -399 -255 -632 -157 -285 -718 -1223 -794 -1327 -27 -38
-55 -65 -70 -69 -35 -9 -1570 6 -1821 18 -113 5 -573 12 -1022 15 -586 5 -820
10 -826 18 -5 6 -21 47 -37 91 -55 155 -137 361 -182 458 -27 57 -43 101 -37
106 5 5 178 86 384 181 550 253 623 292 934 494 560 364 907 578 1126 696 74
40 261 143 415 230 410 229 402 225 536 286 212 96 460 168 639 187 88 9 264
6 350 -8z m-4863 -2079 c239 -50 391 -151 471 -315 36 -74 37 -80 37 -186 l0
-110 -70 -13 c-118 -21 -133 -17 -172 53 -18 33 -36 77 -39 98 -4 20 -11 37
-16 37 -4 0 -29 -19 -54 -42 l-46 -42 4 -66 c4 -68 15 -96 121 -293 47 -87 47
-88 32 -125 -9 -20 -30 -52 -47 -70 -39 -39 -178 -112 -273 -142 -321 -102
-1011 135 -1386 476 l-46 42 -59 -21 c-49 -17 -90 -21 -247 -25 -206 -5 -297
2 -297 22 0 12 284 205 440 298 406 244 807 408 1068 438 115 13 493 4 579
-14z m-2905 -848 c12 -6 16 -17 13 -36 -3 -15 -19 -134 -35 -266 -35 -275 -50
-351 -86 -416 -39 -72 -93 -89 -155 -47 -73 48 -106 179 -96 382 12 224 70
350 183 390 41 15 142 11 176 -7z m10323 -647 c347 -74 565 -205 565 -341 0
-35 -84 -324 -155 -530 -67 -195 -187 -431 -284 -561 -168 -222 -366 -364
-610 -435 -46 -13 -93 -22 -103 -18 -29 9 -22 54 21 119 39 59 42 75 17 75
-25 0 -272 82 -366 122 -149 63 -246 115 -365 193 -178 118 -362 293 -348 333
3 9 29 67 58 127 63 131 168 291 261 398 217 250 550 436 904 506 58 11 114
22 125 24 53 12 198 5 280 -12z m-10045 -306 c103 -27 136 -77 85 -128 -48
-48 -181 -76 -356 -77 -82 0 -98 3 -114 19 -16 19 -16 21 11 46 15 14 49 37
75 52 39 21 48 31 51 56 2 23 9 33 28 38 44 12 164 9 220 -6z m-424 -260 c49
-20 74 -78 74 -175 0 -126 -40 -162 -158 -146 -85 11 -133 65 -140 156 -5 75
1 100 34 134 45 44 126 58 190 31z m-72 -1150 c49 -14 94 -29 100 -35 10 -10
44 -474 45 -617 1 -74 -3 -76 -84 -37 -100 49 -170 136 -199 249 -26 99 -16
336 19 446 8 24 12 24 119 -6z m302 -873 c8 -5 14 -99 18 -287 4 -154 12 -325
16 -380 7 -83 6 -103 -6 -115 -12 -12 -44 -15 -162 -15 -144 0 -149 1 -189 27
-85 56 -123 203 -103 400 11 117 22 164 55 228 53 102 140 149 280 150 44 0
85 -4 91 -8z m-216 -914 c56 -17 97 -46 114 -82 13 -28 16 -73 16 -255 0 -259
9 -246 -126 -181 -147 71 -204 160 -189 297 10 96 34 214 45 228 11 14 82 10
140 -7z m746 -918 c204 -42 326 -89 339 -131 14 -43 -99 -159 -142 -146 -10 3
-61 24 -113 46 -194 83 -213 100 -212 179 1 36 14 72 27 72 2 0 47 -9 101 -20z
m2667 -1436 c53 -27 55 -30 45 -77 -5 -23 -13 -168 -17 -322 -6 -192 -14 -303
-25 -354 -30 -136 -81 -225 -151 -262 -54 -29 -61 -24 -95 66 -40 105 -129
272 -192 360 -58 81 -175 202 -185 191 -3 -2 18 -38 45 -78 68 -101 145 -255
182 -365 24 -72 29 -100 24 -137 -8 -55 -13 -60 -50 -45 -62 23 -168 38 -338
48 -99 6 -181 13 -184 15 -2 3 -17 109 -33 237 -23 185 -34 243 -54 287 -14
30 -27 53 -30 51 -2 -3 1 -50 7 -104 7 -55 12 -152 12 -216 1 -134 -10 -159
-69 -159 -64 0 -155 127 -226 315 -34 89 -34 89 -37 49 -3 -42 37 -217 89
-385 16 -53 29 -101 29 -108 0 -7 -22 -11 -60 -11 -33 0 -60 4 -60 9 0 5 14
19 30 31 42 30 37 40 -19 40 l-50 0 -21 58 c-47 126 -104 262 -107 258 -2 -2
3 -31 11 -64 9 -33 16 -74 16 -91 0 -58 -40 -111 -110 -146 l-34 -18 -52 56
c-110 118 -154 232 -161 419 -4 94 -2 132 7 143 9 11 33 15 94 15 102 0 377
32 566 65 128 23 630 130 1005 214 155 35 157 35 198 15z m272 -22 c51 -27 71
-43 73 -59 3 -21 0 -23 -46 -23 -45 0 -53 4 -81 35 -28 32 -43 85 -23 85 4 0
39 -17 77 -38z m-42 -111 c57 -39 96 -81 75 -81 -22 0 -128 80 -128 97 0 18 6
17 53 -16z m17 -123 c35 -18 73 -45 84 -61 l20 -27 -21 -21 -21 -21 -91 23
-91 24 0 42 c0 85 21 92 120 41z m41 -179 c22 -11 39 -25 36 -32 -6 -19 -53
-20 -89 -1 -41 20 -99 74 -92 85 5 9 77 -17 145 -52z m-107 -86 c8 -19 -8 -38
-23 -29 -16 10 -13 46 3 46 8 0 17 -8 20 -17z m110 -39 c7 -19 -1 -34 -19 -34
-12 0 -25 21 -25 41 0 16 38 10 44 -7z m-91 -75 c54 -35 110 -96 102 -110 -18
-28 -119 10 -149 55 -9 15 -19 40 -23 56 -7 39 10 39 70 -1z m33 -171 c48 -33
70 -68 41 -68 -17 0 -117 78 -117 91 0 17 28 9 76 -23z m-46 -94 c59 -27 113
-72 104 -86 -3 -4 -22 -8 -43 -8 -51 0 -141 68 -141 107 0 19 18 16 80 -13z"/>
<path d="M8700 10378 c-73 -9 -147 -37 -243 -92 -171 -97 -414 -294 -598 -482
-185 -190 -260 -315 -263 -434 -2 -117 44 -160 170 -160 44 0 108 7 144 16
187 44 455 228 731 504 210 210 282 330 283 470 1 145 -67 199 -224 178z"/>
<path d="M9510 10261 c-134 -29 -278 -198 -415 -485 -142 -296 -205 -561 -157
-656 31 -63 91 -75 187 -39 139 52 262 193 428 491 133 237 188 391 189 522 0
81 -17 125 -57 152 -28 18 -123 27 -175 15z"/>
<path d="M8478 6983 c101 -2 263 -2 360 0 97 1 15 2 -183 2 -198 0 -278 -1
-177 -2z"/>
<path d="M9306 6965 c232 -31 750 -46 929 -26 l60 7 -80 11 c-49 8 -261 14
-545 17 -426 5 -456 4 -364 -9z"/>
<path d="M4810 6389 c-96 -4 -193 -12 -215 -17 l-40 -9 45 -13 c52 -14 405 -8
700 14 l175 12 -85 7 c-156 12 -403 15 -580 6z"/>
<path d="M6545 6330 c-60 -4 -156 -8 -212 -9 -56 0 -104 -5 -107 -10 -3 -5 55
-12 132 -16 164 -9 794 -1 812 10 9 6 8 10 -6 18 -23 13 -463 18 -619 7z"/>
<path d="M9220 6255 c137 -15 314 -17 400 -5 39 5 -1 8 -135 9 -104 0 -235 3
-290 6 l-100 4 125 -14z"/>
<path d="M2818 5563 c7 -3 16 -2 19 1 4 3 -2 6 -13 5 -11 0 -14 -3 -6 -6z"/>
<path d="M8260 4450 c8 -5 20 -10 25 -10 6 0 3 5 -5 10 -8 5 -19 10 -25 10 -5
0 -3 -5 5 -10z"/>
<path d="M9028 4383 c12 -2 32 -2 45 0 12 2 2 4 -23 4 -25 0 -35 -2 -22 -4z"/>
<path d="M9158 4373 c18 -2 45 -2 60 0 15 2 0 4 -33 4 -33 0 -45 -2 -27 -4z"/>
<path d="M9303 4363 c9 -2 25 -2 35 0 9 3 1 5 -18 5 -19 0 -27 -2 -17 -5z"/>
<path d="M4648 3783 c7 -3 16 -2 19 1 4 3 -2 6 -13 5 -11 0 -14 -3 -6 -6z"/>
<path d="M9471 3596 c16 -17 384 -69 369 -53 -3 3 -52 14 -110 25 -115 22
-269 38 -259 28z"/>
<path d="M9507 3350 c-213 -63 -307 -188 -307 -410 0 -95 18 -176 54 -248 24
-47 101 -128 145 -152 50 -26 138 -50 222 -61 158 -19 268 18 374 128 89 91
128 173 133 284 4 90 -13 177 -45 226 -38 57 -213 168 -344 217 -95 36 -151
39 -232 16z m150 -172 c51 -30 85 -110 91 -217 6 -106 -5 -145 -56 -193 -68
-65 -166 -138 -185 -138 -11 0 -36 14 -57 30 -116 92 -166 296 -102 421 55
109 209 157 309 97z m152 -514 c50 -63 48 -136 -4 -164 -34 -18 -143 -6 -162
17 -43 55 -47 64 -31 79 14 15 157 93 170 94 4 0 16 -12 27 -26z"/>
<path d="M7389 1048 c-50 -51 -81 -112 -220 -422 -51 -115 -103 -221 -115
-236 -12 -14 -39 -35 -58 -45 -20 -11 -36 -22 -36 -26 0 -3 19 -9 43 -12 30
-4 48 -13 62 -33 56 -75 44 -70 126 -51 41 10 112 34 159 53 47 20 98 41 113
47 23 10 30 9 37 -3 15 -24 12 -31 -32 -73 l-43 -40 220 7 c559 16 573 17 567
38 -3 11 10 41 32 74 21 31 35 59 31 62 -3 3 -81 -12 -173 -35 -91 -23 -170
-39 -175 -36 -18 11 2 116 36 187 40 83 93 156 205 284 78 88 93 112 73 112
-13 0 -158 -97 -241 -161 -150 -117 -256 -276 -275 -414 -11 -84 -12 -85 -58
-84 -110 1 -146 44 -81 97 l38 31 -28 10 c-15 6 -38 14 -51 17 -14 3 -25 12
-25 19 0 7 33 39 73 71 39 32 105 92 145 132 73 75 187 233 180 252 -2 6 -30
-12 -63 -41 -33 -28 -103 -84 -155 -124 -52 -41 -138 -117 -190 -171 -100
-102 -169 -154 -205 -154 -40 0 -60 36 -59 104 2 92 36 197 145 444 31 70 49
123 47 140 l-4 27 -45 -47z"/>
<path d="M1420 1077 c0 -2 17 -48 39 -103 77 -197 94 -262 95 -359 1 -80 -2
-96 -27 -145 -57 -111 -171 -228 -319 -329 l-47 -32 21 -44 c12 -25 28 -45 36
-45 43 0 272 184 341 274 111 143 116 254 26 517 -45 133 -76 196 -116 237
-27 27 -49 40 -49 29z"/>
<path d="M10075 759 c-26 -34 -71 -86 -100 -118 -52 -55 -177 -243 -249 -373
-20 -36 -43 -71 -51 -78 -20 -17 -118 -25 -143 -11 -26 14 -29 48 -7 77 21 27
19 34 -10 34 -36 0 -95 26 -95 43 0 7 14 35 32 63 17 27 44 81 59 119 15 39
34 87 43 108 9 20 14 37 12 37 -3 0 -44 -51 -92 -112 -49 -62 -97 -121 -108
-131 -32 -27 -125 -73 -186 -91 -66 -20 -239 -48 -251 -40 -5 3 -9 90 -9 195
0 104 -4 189 -8 189 -14 0 -44 -162 -70 -365 l-7 -60 -190 -5 -190 -5 130 -8
c72 -4 169 -12 217 -18 92 -11 383 2 463 21 73 17 78 15 72 -30 l-5 -40 591 1
c341 1 575 5 552 10 -22 4 -72 8 -111 8 -80 1 -103 15 -85 49 30 56 346 330
401 347 20 6 54 69 48 87 -2 5 -53 -34 -113 -88 -247 -217 -405 -324 -517
-348 -41 -9 -93 16 -109 53 -8 17 -17 31 -21 31 -3 0 -25 -22 -48 -50 -23 -27
-47 -50 -54 -50 -7 0 -27 15 -45 34 l-33 34 56 92 c97 156 208 305 278 372 29
28 39 78 14 78 -7 0 -35 -27 -61 -61z"/>
<path d="M1796 715 c-37 -86 -51 -143 -51 -207 0 -63 4 -75 70 -204 38 -76 70
-144 70 -152 0 -9 6 -17 14 -20 18 -6 10 81 -21 230 -11 57 -30 168 -43 248
l-22 145 -17 -40z"/>
<path d="M6015 657 c-26 -101 75 -417 161 -503 40 -40 102 -76 116 -68 17 10
7 58 -18 91 -21 28 -168 322 -236 473 l-16 35 -7 -28z"/>
</g>
</svg>
